# AST/ASF file generated using VICON BodyLanguage
# -----------------------------------------------
:version 1.10
:name VICON
:units
  mass 1.0
  length 0.45
  angle deg
:documentation
   .ast/.asf automatically generated from VICON data using
   VICON BodyBuilder and BodyLanguage model FoxedUp or BRILLIANT.MOD
:root
   order TX TY TZ RX RY RZ
   axis XYZ
   position 0 0 0  
   orientation 0 0 0 
:bonedata
  begin
     id 1 
     name lhipjoint
     direction 0.621036 -0.695554 0.361275 
     length 2.46325 
     axis 0 0 0  XYZ
  end
  begin
     id 2 
     name lfemur
     direction 0.34202 -0.939693 0  
     length 6.54784  
     axis 0 0 20  XYZ
    dof rx ry rz
    limits (-160.0 20.0)
           (-70.0 70.0)
           (-60.0 70.0)
  end
  begin
     id 3 
     name ltibia
     direction 0.34202 -0.939693 0   
     length 7.84737   
     axis 0 0 20   XYZ
    dof rx
    limits (-10.0 170.0)
  end
  begin
     id 4 
     name lfoot
     direction 0.0790693 -0.217241 0.97291   
     length 2.59747   
     axis -90 7.62852e-016 20   XYZ
    dof rx rz
    limits (-45.0 90.0)
           (-70.0 20.0)
  end
  begin
     id 5 
     name ltoes
     direction 1.53572e-011 -4.21898e-011 1   
     length 1.29919   
     axis -90 7.62852e-016 20   XYZ
    dof rx
    limits (-90.0 20.0)
  end
  begin
     id 6 
     name rhipjoint
     direction -0.602353 -0.708375 0.367935   
     length 2.41867  
     axis 0 0 0  XYZ 
  end
  begin
     id 7 
     name rfemur
     direction -0.34202 -0.939693 0   
     length 6.92065   
     axis 0 0 -20   XYZ
    dof rx ry rz
    limits (-160.0 20.0)
           (-70.0 70.0)
           (-70.0 60.0)
  end
  begin
     id 8 
     name rtibia
     direction -0.34202 -0.939693 0   
     length 7.88883   
     axis 0 0 -20   XYZ
    dof rx
    limits (-10.0 170.0)
 end
 begin
     id 9 
     name rfoot
     direction -0.0768692 -0.211196 0.974416   
     length 2.43714  
     axis -90 -7.62852e-016 -20   XYZ
    dof rx rz
    limits (-45.0 90.0)
           (-20.0 70.0)
  end
  begin
     id 10 
     name rtoes
     direction -1.53575e-011 -4.21933e-011 1   
     length 1.22113   
     axis -90 -7.62852e-016 -20   XYZ
    dof rx
    limits (-90.0 20.0)
  end
  begin
     id 11 
     name lowerback
     direction 0.0197937 0.98943 -0.143655   
     length 2.16931   
     axis 0 0 0   XYZ
    dof rx ry rz
    limits (-20.0 45.0)
           (-30.0 30.0)
           (-30.0 30.0)
  end
  begin
     id 12 
     name upperback
     direction -0.00183968 0.999975 0.00684288   
     length 2.17221   
     axis 0 0 0   XYZ
    dof rx ry rz
    limits (-20.0 45.0)
           (-30.0 30.0)
           (-30.0 30.0)
  end
  begin
     id 13 
     name thorax
     direction -0.00950244 0.997208 0.0740685   
     length 2.22549   
     axis 0 0 0   XYZ
    dof rx ry rz
    limits (-20.0 45.0)
           (-30.0 30.0)
           (-30.0 30.0)
  end
  begin
     id 14 
     name lowerneck
     direction 0.0218238 0.996215 0.0841425   
     length 1.77269   
     axis 0 0 0   XYZ
    dof rx ry rz
    limits (-20.0 45.0)
           (-30.0 30.0)
           (-30.0 30.0)
  end
  begin
     id 15 
     name upperneck
     direction -0.00430652 0.994214 -0.107332   
     length 1.76534   
     axis 0 0 0   XYZ
    dof rx ry rz
    limits (-20.0 45.0)
           (-30.0 30.0)
           (-30.0 30.0)
  end
  begin
     id 16
     name head
     direction -0.00328946 0.998959 -0.0454998  
     length 1.82634  
     axis 0 0 0   XYZ
    dof rx ry rz
    limits (-20.0 45.0)
           (-30.0 30.0)
           (-30.0 30.0)
  end
  begin
     id 17 
     name lclavicle
     direction 0.970962 0.239191 0.00450212  
     length 3.84872  
     axis 0 0 0   XYZ
    dof ry rz
    limits (-20.0 10.0)
           (0.0 20.0)
  end
  begin
     id 18 
     name lhumerus
     direction 1 -4.48966e-011 5.74696e-028   
     length 5.22771   
     axis 180 -30 -90   XYZ
    dof rx ry rz
    limits (-60.0 90.0)
           (-90.0 90.0)
           (-90.0 90.0)
  end
  begin
     id 19
     name lradius
     direction 1 -4.4896e-011 4.25109e-027   
     length 3.45251   
     axis 180 -30 -90   XYZ
    dof rx
    limits (-10.0 170.0)
  end
  begin
     id 20
     name lwrist
     direction 1 -4.48971e-011 1.15382e-027   
     length 1.72626   
     axis -5.52449e-016 90 90   XYZ
    dof ry
    limits (-180.0 0.0)
 end
  begin
     id 21 
     name lhand
     direction 1 -4.49034e-011 2.30765e-027   
     length 0.552119   
     axis -1.47248e-015 90 90   XYZ
    dof rx rz
    limits (-90.0 90.0)
           (-45.0 45.0)
  end
  begin
     id 22 
     name lfingers
     direction 1 -4.48951e-011 4.61529e-027   
     length 0.445133   
     axis -2.94495e-015 90 90   XYZ
    dof rx
    limits (0.0 90.0)
  end
  begin
     id 23
     name lthumb
     direction 0.707107 -6.34991e-011 0.707107   
     length 0.639124   
     axis -90 45 2.85299e-015   XYZ
    dof rx rz
    limits (-45.0 45.0)
           (-45.0 45.0)
  end
  begin
     id 24 
     name rclavicle
     direction -0.97424 0.222511 -0.0366699   
     length 3.73439  
     axis 0 0 0   XYZ 
    dof ry rz
    limits (-10.0 20.0)
           (-20.0 0.0)
  end
  begin
     id 25 
     name rhumerus
     direction -1 -4.48956e-011 -4.97258e-028  
     length 5.2398   
     axis 180 30 90   XYZ
    dof rx ry rz
    limits (-90.0 60.0)
           (-90.0 90.0)
           (-90.0 90.0)
  end
  begin
     id 26 
     name rradius
     direction -1 -4.4897e-011 -1.72611e-027   
     length 3.48042   
     axis 180 30 90   XYZ
    dof rx
    limits (-10.0 170.0)
  end
  begin
     id 27 
     name rwrist
     direction -1 -4.48976e-011 1.15382e-027   
     length 1.74021   
     axis -5.52449e-016 -90 -90   XYZ
    dof ry
    limits (-180.0 0.0)
  end
  begin
     id 28
     name rhand
     direction -1 -4.48963e-011 2.30765e-027   
     length 0.618713   
     axis -1.47248e-015 -90 -90   XYZ
    dof rx rz
    limits (-90.0 90.0)
           (-45.0 45.0)
  end
  begin
     id 29
     name rfingers
     direction -1 -4.4888e-011 4.61529e-027   
     length 0.498823   
     axis -2.94495e-015 -90 -90   XYZ
    dof rx
    limits (0.0 90.0)
  end
  begin
     id 30
     name rthumb
     direction -0.707107 -6.34968e-011 0.707107   
     length 0.716213   
     axis -90 -45 -2.85299e-015   XYZ
    dof rx rz
    limits (-45.0 45.0)
           (-45.0 45.0)
  end
:hierarchy
  begin
    root lhipjoint rhipjoint lowerback
    lhipjoint lfemur
    lfemur ltibia
    ltibia lfoot
    lfoot ltoes
    rhipjoint rfemur
    rfemur rtibia
    rtibia rfoot
    rfoot rtoes
    lowerback upperback
    upperback thorax
    thorax lowerneck lclavicle rclavicle
    lowerneck upperneck
    upperneck head
    lclavicle lhumerus
    lhumerus lradius
    lradius lwrist
    lwrist lhand lthumb
    lhand lfingers
    rclavicle rhumerus
    rhumerus rradius
    rradius rwrist
    rwrist rhand rthumb
    rhand rfingers
  end

#!OML:ASF G:\JayActor3\Patient Classification 1\Patient 1\Session 5\male.ASF
:FULLY-SPECIFIED
:DEGREES
360
root 29.2833 14.1742 -5.20852 -10.9886 85.607 331.667
lowerback 30.4327 -0.977077 -0.0396662
upperback 6.82193 -0.78647 -1.21618
thorax -9.03667 -0.128421 -1.09883
lowerneck -5.19502 0.147163 2.33354
upperneck -13.7708 0.676184 1.159
head -3.55084 0.36589 -0.042832
rclavicle -1.19271e-014 4.77083e-015
rhumerus -23.223 8.19255 -86.2672
rradius 50.5753
rwrist -5.19089
rhand -21.1583 -8.4624
rfingers 7.12502
rthumb 5.2215 -38.3781
lclavicle -1.19271e-014 4.77083e-015
lhumerus -20.1484 -6.54047 81.515
lradius 39.9154
lwrist 23.3821
lhand -20.1345 11.6444
lfingers 7.12502
lthumb 6.20997 41.5333
rfemur -60.6821 -6.26511 19.9836
rtibia 107.831
rfoot -5.28298 -1.32334
rtoes -16.2966
lfemur -62.3091 7.61711 -28.709
ltibia 75.3152
lfoot -26.7563 1.93801
ltoes -3.00916
361
root 29.2057 14.1773 -5.20655 -10.613 85.6398 331.869
lowerback 30.3186 -0.968985 -0.0417578
upperback 6.78404 -0.784053 -1.23089
thorax -9.02505 -0.129762 -1.1149
lowerneck -5.2661 0.143937 2.31775
upperneck -13.7349 0.672587 1.18399
head -3.52528 0.3651 -0.031615
rclavicle 1.23246e-014 1.98785e-014
rhumerus -23.2087 8.20248 -86.2489
rradius 50.6026
rwrist -5.24336
rhand -21.1669 -8.45346
rfingers 7.12502
rthumb 5.21316 -38.3693
lclavicle 1.23246e-014 1.98785e-014
lhumerus -20.0683 -6.5717 81.5124
lradius 39.9548
lwrist 23.3892
lhand -20.1275 11.5641
lfingers 7.12502
lthumb 6.21673 41.4528
rfemur -59.8713 -6.2696 20.0432
rtibia 107.504
rfoot -5.0449 -1.36323
rtoes -15.9396
lfemur -62.7578 7.62411 -28.7644
ltibia 75.1259
lfoot -26.4299 1.67304
ltoes -2.75413
362
root 29.1275 14.1797 -5.20354 -10.1168 85.6734 332.195
lowerback 30.2096 -0.958708 -0.0580708
upperback 6.74448 -0.783233 -1.24615
thorax -9.01755 -0.131564 -1.12277
lowerneck -5.33526 0.141544 2.30615
upperneck -13.6942 0.668986 1.20229
head -3.49835 0.364237 -0.0233152
rclavicle -1.86858e-014 -7.55382e-015
rhumerus -23.1991 8.22723 -86.2342
rradius 50.6401
rwrist -5.29997
rhand -21.1718 -8.44762
rfingers 7.12502
rthumb 5.20844 -38.3636
lclavicle -1.86858e-014 -7.55382e-015
lhumerus -19.9907 -6.59898 81.5073
lradius 39.9922
lwrist 23.4008
lhand -20.1189 11.4641
lfingers 7.12502
lthumb 6.22504 41.3526
rfemur -59.0932 -6.26474 20.1045
rtibia 107.122
rfoot -4.90927 -1.38242
rtoes -15.6635
lfemur -63.2177 7.63701 -28.8251
ltibia 74.9505
lfoot -26.0784 1.38102
ltoes -2.5146
363
root 29.0485 14.1814 -5.19952 -9.48409 85.7059 332.66
lowerback 30.1053 -0.945631 -0.0882131
upperback 6.70157 -0.783363 -1.26292
thorax -9.01585 -0.133608 -1.12399
lowerneck -5.39188 0.139719 2.30097
upperneck -13.655 0.665212 1.21205
head -3.47423 0.363037 -0.0189516
rclavicle -1.11319e-014 1.35174e-014
rhumerus -23.2012 8.25943 -86.2263
rradius 50.6917
rwrist -5.35297
rhand -21.1767 -8.44103
rfingers 7.12502
rthumb 5.20378 -38.3571
lclavicle -1.11319e-014 1.35174e-014
lhumerus -19.9258 -6.62519 81.498
lradius 40.0339
lwrist 23.4246
lhand -20.0913 11.4312
lfingers 7.12502
lthumb 6.25169 41.3189
rfemur -58.3512 -6.24923 20.1655
rtibia 106.693
rfoot -4.83519 -1.39613
rtoes -15.2611
lfemur -63.6813 7.65574 -28.8929
ltibia 74.7818
lfoot -25.7127 1.0701
ltoes -2.28426
364
root 28.9688 14.1826 -5.19449 -8.77434 85.7306 333.203
lowerback 30.004 -0.927566 -0.126539
upperback 6.65506 -0.779848 -1.27924
thorax -9.01942 -0.133903 -1.12129
lowerneck -5.42938 0.137787 2.29983
upperneck -13.6244 0.660803 1.21263
head -3.4566 0.361349 -0.0183416
rclavicle 3.97569e-015 1.35174e-014
rhumerus -23.2147 8.29888 -86.2224
rradius 50.7579
rwrist -5.41005
rhand -21.1737 -8.44674
rfingers 7.12502
rthumb 5.20664 -38.3628
lclavicle 3.97569e-015 1.35174e-014
lhumerus -19.8716 -6.65373 81.4873
lradius 40.0843
lwrist 23.4499
lhand -20.0509 11.4041
lfingers 7.12502
lthumb 6.29067 41.2907
rfemur -57.6504 -6.21337 20.2334
rtibia 106.223
rfoot -4.88707 -1.42688
rtoes -14.9742
lfemur -64.1472 7.68327 -28.9611
ltibia 74.6155
lfoot -25.3303 0.748944
ltoes -2.06318
365
root 28.8884 14.1835 -5.1885 -8.07452 85.7497 333.743
lowerback 29.9088 -0.907789 -0.164662
upperback 6.60938 -0.773732 -1.29446
thorax -9.02477 -0.132894 -1.11841
lowerneck -5.45204 0.135221 2.29666
upperneck -13.6065 0.655904 1.20843
head -3.44617 0.359508 -0.0190115
rclavicle -6.36111e-015 1.23246e-014
rhumerus -23.2329 8.34266 -86.2233
rradius 50.8327
rwrist -5.46126
rhand -21.1747 -8.45151
rfingers 7.12502
rthumb 5.2057 -38.3676
lclavicle -6.36111e-015 1.23246e-014
lhumerus -19.8245 -6.68201 81.4741
lradius 40.1422
lwrist 23.479
lhand -19.9984 11.4292
lfingers 7.12502
lthumb 6.34133 41.3143
rfemur -56.9834 -6.15873 20.3151
rtibia 105.714
rfoot -5.05577 -1.50131
rtoes -14.8247
lfemur -64.606 7.71639 -29.0235
ltibia 74.4476
lfoot -24.9417 0.42049
ltoes -1.81538
366
root 28.8071 14.1841 -5.18166 -7.40995 85.7623 334.259
lowerback 29.8231 -0.887339 -0.199117
upperback 6.56596 -0.765205 -1.30928
thorax -9.03215 -0.130664 -1.11811
lowerneck -5.45387 0.133354 2.29457
upperneck -13.6108 0.652755 1.19796
head -3.44733 0.358523 -0.0220396
rclavicle -7.15625e-015 3.18055e-015
rhumerus -23.2525 8.39252 -86.2296
rradius 50.9115
rwrist -5.50888
rhand -21.175 -8.45752
rfingers 7.12502
rthumb 5.20534 -38.3736
lclavicle -7.15625e-015 3.18055e-015
lhumerus -19.7825 -6.70816 81.457
lradius 40.2095
lwrist 23.5124
lhand -19.9704 11.4633
lfingers 7.12502
lthumb 6.36843 41.3475
rfemur -56.3481 -6.08313 20.411
rtibia 105.173
rfoot -5.3293 -1.63207
rtoes -14.7948
lfemur -65.0525 7.75449 -29.078
ltibia 74.2777
lfoot -24.5491 0.0927899
ltoes -1.54721
367
root 28.7252 14.1846 -5.17402 -6.7943 85.7691 334.742
lowerback 29.7513 -0.868057 -0.231359
upperback 6.52827 -0.756576 -1.32315
thorax -9.03974 -0.128086 -1.11806
lowerneck -5.4432 0.133715 2.29347
upperneck -13.6333 0.653141 1.18125
head -3.45715 0.3594 -0.0273942
rclavicle 6.36111e-015 3.18055e-015
rhumerus -23.2658 8.45038 -86.2407
rradius 50.991
rwrist -5.55131
rhand -21.1703 -8.46555
rfingers 7.12502
rthumb 5.20989 -38.3815
lclavicle 6.36111e-015 3.18055e-015
lhumerus -19.7438 -6.72089 81.435
lradius 40.2837
lwrist 23.5467
lhand -19.9523 11.4759
lfingers 7.12502
lthumb 6.38587 41.3597
rfemur -55.7354 -5.98948 20.52
rtibia 104.6
rfoot -5.70539 -1.82758
rtoes -14.7299
lfemur -65.4797 7.79635 -29.123
ltibia 74.1053
lfoot -24.151 -0.225577
ltoes -1.27984
368
root 28.6426 14.1853 -5.16561 -6.28135 85.774 335.143
lowerback 29.6948 -0.852947 -0.256712
upperback 6.49733 -0.75019 -1.33638
thorax -9.04714 -0.1263 -1.12047
lowerneck -5.42625 0.134533 2.28503
upperneck -13.6664 0.65549 1.16944
head -3.47184 0.361445 -0.0299674
rclavicle 8.34896e-015 7.15625e-015
rhumerus -23.2697 8.51771 -86.2577
rradius 51.0641
rwrist -5.58542
rhand -21.1684 -8.46638
rfingers 7.12502
rthumb 5.21173 -38.3823
lclavicle 8.34896e-015 7.15625e-015
lhumerus -19.7054 -6.71917 81.4059
lradius 40.361
lwrist 23.5835
lhand -19.969 11.4367
lfingers 7.12502
lthumb 6.36978 41.321
rfemur -55.1362 -5.87828 20.6443
rtibia 103.995
rfoot -6.15868 -2.09475
rtoes -14.5327
lfemur -65.889 7.84278 -29.157
ltibia 73.9326
lfoot -23.744 -0.533886
ltoes -1.00058
369
root 28.5596 14.1863 -5.15649 -5.81025 85.7798 335.526
lowerback 29.6586 -0.842244 -0.281506
upperback 6.47105 -0.748401 -1.34907
thorax -9.05921 -0.126298 -1.121
lowerneck -5.40337 0.138015 2.27488
upperneck -13.7034 0.661749 1.15767
head -3.489 0.365464 -0.032318
rclavicle 3.02153e-014 2.62396e-014
rhumerus -23.2675 8.59469 -86.2799
rradius 51.1303
rwrist -5.6124
rhand -21.1636 -8.46382
rfingers 7.12502
rthumb 5.21643 -38.3796
lclavicle 3.02153e-014 2.62396e-014
lhumerus -19.6749 -6.70465 81.3716
lradius 40.4391
lwrist 23.6271
lhand -19.9921 11.3867
lfingers 7.12502
lthumb 6.34744 41.2716
rfemur -54.5437 -5.75492 20.7749
rtibia 103.356
rfoot -6.66255 -2.42777
rtoes -14.1286
lfemur -66.2744 7.89571 -29.1888
ltibia 73.7582
lfoot -23.3326 -0.828709
ltoes -0.746029
370
root 28.476 14.1867 -5.1466 -5.43147 85.7888 335.838
lowerback 29.639 -0.837995 -0.303564
upperback 6.44966 -0.753072 -1.36004
thorax -9.07393 -0.12901 -1.11888
lowerneck -5.38195 0.144372 2.27107
upperneck -13.7356 0.670738 1.13955
head -3.50416 0.370712 -0.0378561
rclavicle -1.03368e-014 -9.14409e-015
rhumerus -23.2558 8.68373 -86.3073
rradius 51.1878
rwrist -5.6365
rhand -21.1558 -8.45732
rfingers 7.12502
rthumb 5.22388 -38.3729
lclavicle -1.03368e-014 -9.14409e-015
lhumerus -19.6453 -6.67437 81.3309
lradius 40.5102
lwrist 23.6744
lhand -20.019 11.3283
lfingers 7.12502
lthumb 6.32148 41.214
rfemur -53.9609 -5.62077 20.9157
rtibia 102.689
rfoot -7.23163 -2.82952
rtoes -13.6319
lfemur -66.6447 7.93427 -29.209
ltibia 73.5889
lfoot -22.9152 -1.07691
ltoes -0.533331
